<?xml version="1.0" encoding="UTF-8"?>
<svg width="471px" height="467px" viewBox="0 0 471 467" version="1.1" xmlns="http://www.w3.org/2000/svg" xmlns:xlink="http://www.w3.org/1999/xlink">
    <!-- Generator: Sketch 49.1 (51147) - http://www.bohemiancoding.com/sketch -->
    <title>layer1</title>
    <desc>Created with Sketch.</desc>
    <defs></defs>
    <g id="Page-1" stroke="none" stroke-width="1" fill="none" fill-rule="evenodd">
        <g id="52040-grey-chicken-vector" transform="translate(1.000000, 0.000000)" fill="#000000">
            <g id="layer1" style="mix-blend-mode: darken;" transform="translate(235.013598, 231.529058) rotate(0.252518) translate(-235.013598, -231.529058) translate(1.013598, 1.029058)">
                <g id="g3433">
                    <g id="g2499" transform="translate(288.000000, 437.000000)">
                        <path d="M24.661011,0.971527 C24.661011,0.971527 6.509156,4.574921 4.674958,7.027069 C2.840699,9.479217 0.709748,13.224121 0.709748,13.224121 C0.709748,13.224121 9.762482,11.647339 10.535554,9.436951 C11.308595,7.226532 32.828065,10.114746 32.828065,10.114746" id="path2501"></path>
                        <path d="M24.661011,0.971527 C24.661011,0.971527 6.509156,4.574921 4.674958,7.027069 C2.840699,9.479217 0.709748,13.224121 0.709748,13.224121 C0.709748,13.224121 9.762482,11.647339 10.535554,9.436951 C11.308595,7.226532 32.828065,10.114746 32.828065,10.114746" id="path2503" stroke="#000000" stroke-width="3"></path>
                    </g>
                    <g id="g2471" transform="translate(188.000000, 339.000000)">
                        <g id="g2473" transform="translate(34.000000, 66.000000)">
                            <path d="M0.124084,2.580627 C0.124084,2.580627 26.152648,-0.508118 33.248504,0.292236 C40.344482,1.092651 48.774688,4.823974 48.774688,4.823974 C48.774688,4.823974 35.724456,3.512206 32.122558,4.336974 C28.520568,5.161681 22.130615,9.519194 22.130615,9.519194" id="path2475"></path>
                            <path d="M0.124084,2.580627 C0.124084,2.580627 26.152648,-0.508118 33.248504,0.292236 C40.344482,1.092651 48.774688,4.823974 48.774688,4.823974 C48.774688,4.823974 35.724456,3.512206 32.122558,4.336974 C28.520568,5.161681 22.130615,9.519194 22.130615,9.519194" id="path2477" stroke="#000000" stroke-width="3"></path>
                        </g>
                        <g id="g2479" transform="translate(38.000000, 69.000000)">
                            <path d="M18.001617,16.316315 C15.802093,14.626435 58.989471,10.025482 59.829864,7.946076 C60.670318,5.866547 1.10025,0.766266 1.10025,0.766266" id="path2481"></path>
                            <path d="M18.001617,16.316315 C11.680358,14.842011 51.347961,9.620972 59.829864,7.946076 C68.311859,6.271058 0.838378,2.265381 0.838378,2.265381" id="path2483" stroke="#000000" stroke-width="3"></path>
                        </g>
                        <g id="g2485">
                            <path d="M0.414246,1.227234 C2.716645,10.6922 25.105652,80.322754 33.180573,82.163178 C41.255555,84.00348 66.136475,91.817597 68.292511,92.598603 C70.937988,93.556977 82.241211,101.019685 82.241211,101.019685 C82.241211,101.019685 75.21695,89.007295 71.936279,88.377107 C68.655609,87.74698 46.452545,75.279664 45.228119,72.583711 C30.552399,49.446443 20.842743,13.847993 18.946991,0.275758" id="path2487"></path>
                            <path d="M0.414246,1.227234 C2.716645,10.6922 25.105652,80.322754 33.180573,82.163178 C41.255555,84.00348 66.136475,91.817597 68.292511,92.598603 C70.937988,93.556977 82.241211,101.019685 82.241211,101.019685 C82.241211,101.019685 75.21695,89.007295 71.936279,88.377107 C68.655609,87.74698 46.452545,75.279664 45.228119,72.583711 C30.552399,49.446443 20.842743,13.847993 18.946991,0.275758" id="path2489" stroke="#000000" stroke-width="3"></path>
                        </g>
                    </g>
                    <g id="g2456" transform="translate(116.000000, 284.000000)">
                        <path d="M0.799805,0.29715 C0.799805,0.29715 8.081818,39.792817 27.786042,43.706879 C47.490205,47.62085 69.336274,66.834931 73.619721,67.546601 C77.90329,68.25824 93.75232,73.951356 96.322449,73.951356 C98.892578,73.951356 150.723206,49.044129 150.723206,49.044129" id="path2454"></path>
                        <path d="M0.799805,0.29715 C0.799805,0.29715 8.081818,39.792817 27.786042,43.706879 C47.490205,47.62085 69.336274,66.834931 73.619721,67.546601 C77.90329,68.25824 93.75232,73.951356 96.322449,73.951356 C98.892578,73.951356 150.723206,49.044129 150.723206,49.044129" id="path2452" stroke="#000000" stroke-width="3"></path>
                    </g>
                    <g id="g2928" transform="translate(51.000000, 121.000000)">
                        <path d="M268.37085,1.616211 C223.480561,32.890732 219.136322,24.069656 215.757508,24.871613 C212.378602,25.673523 180.520997,45.721299 166.522889,45.721299 C152.524873,45.721299 121.149873,40.909806 103.77295,44.518372 C86.396027,48.126984 0.959611,73.387101 0.959611,73.387101 C0.959611,73.387101 6.751908,149.568513 35.71341,165.205842 C64.674897,180.843019 116.322968,189.263093 116.322968,189.263093 C116.322968,189.263093 313.26117,199.687928 339.326539,152.375276 C365.391908,105.062593 360.564881,67.372789 360.564881,67.372789 L312.295838,0.814317" id="path2926"></path>
                        <path d="M268.37085,1.616211 C223.480561,32.890732 219.136322,24.069656 215.757508,24.871613 C212.378602,25.673523 180.520997,45.721299 166.522889,45.721299 C152.524873,45.721299 121.149873,40.909806 103.77295,44.518372 C86.396027,48.126984 0.959611,73.387101 0.959611,73.387101 C0.959611,73.387101 6.751908,149.568513 35.71341,165.205842 C64.674897,180.843019 116.322968,189.263093 116.322968,189.263093 C116.322968,189.263093 313.26117,199.687928 339.326539,152.375276 C365.391908,105.062593 360.564881,67.372789 360.564881,67.372789 L312.295838,0.814317" id="path2924" stroke="#000000" stroke-width="3"></path>
                    </g>
                    <g id="g2448" transform="translate(318.000000, 429.000000)">
                        <path d="M0.15683,9.087341 C0.15683,9.087341 24.678375,1.206878 31.80893,0.658661 C38.939545,0.110565 48.165101,2.168274 48.165101,2.168274 C48.165101,2.168274 35.094636,3.332489 31.80893,4.81012 C28.523285,6.287751 23.479493,11.729096 23.479493,11.729096" id="path2446"></path>
                        <path d="M0.15683,9.087341 C0.15683,9.087341 24.678375,1.206878 31.80893,0.658661 C38.939545,0.110565 48.165101,2.168274 48.165101,2.168274 C48.165101,2.168274 35.094636,3.332489 31.80893,4.81012 C28.523285,6.287751 23.479493,11.729096 23.479493,11.729096" id="path2444" stroke="#000000" stroke-width="3"></path>
                    </g>
                    <g id="g2440" transform="translate(323.000000, 433.000000)">
                        <path d="M21.011017,17.298492 C18.409668,16.06369 59.238861,3.498687 59.493652,1.31546 C59.748413,-0.867859 0.326599,5.311188 0.326599,5.311188" id="path2438"></path>
                        <path d="M21.011017,17.298492 C14.452423,17.045105 51.684052,4.534668 59.493652,1.31546 C67.303222,-1.903839 0.477996,6.820801 0.477996,6.820801" id="path2436" stroke="#000000" stroke-width="3"></path>
                    </g>
                    <g id="g3714" transform="translate(267.000000, 374.000000)">
                        <path d="M0.045837,4.774231 C4.85614,13.564941 45.55487,77.215393 53.921447,77.497223 C62.288024,77.779053 88.648589,80.735962 90.960967,81.093384 C93.798461,81.532074 106.835051,86.68747 106.835051,86.68747 C106.835051,86.68747 96.733397,76.298493 93.366148,76.298493 C89.998899,76.298493 64.985167,68.306977 63.061094,65.909485 C42.487272,46.113526 23.372099,13.247376 17.843992,0.378906" id="path2942"></path>
                        <path d="M0.045837,4.774231 C4.85614,13.564941 45.55487,77.215393 53.921447,77.497223 C62.288024,77.779053 88.648589,80.735962 90.960967,81.093384 C93.798461,81.532074 106.835051,86.68747 106.835051,86.68747 C106.835051,86.68747 96.733397,76.298493 93.366148,76.298493 C89.998899,76.298493 64.985167,68.306977 63.061094,65.909485 C42.487272,46.113526 23.372099,13.247376 17.843992,0.378906" id="path2940" stroke="#000000" stroke-width="3"></path>
                    </g>
                    <path d="M150.952454,329.152313 C150.952454,329.152313 184.168244,349.966705 186.499146,350.450714 C188.830079,350.934784 207.47754,357.227539 210.973908,357.227539 C214.470337,357.227539 230.204133,349.482696 230.204133,349.482696 L231.952302,325.279846 C208.341523,326.770691 207.794038,340.338775 150.952455,329.152313 L150.952454,329.152313 Z" id="path3396" fill-opacity="0.091346"></path>
                    <g id="g2936" transform="translate(159.000000, 288.000000)">
                        <path d="M197.077942,0.509521 C187.439911,35.042022 187.932648,47.470062 160.752808,71.160827 C158.980927,75.576568 141.261261,96.183196 135.059479,96.919067 C128.857514,97.655059 109.366089,96.919067 104.936219,93.975341 C100.506318,91.031493 89.874543,68.953002 83.672639,66.745116 C77.470796,64.537261 25.19806,40.250823 23.426118,36.571074 C21.654084,32.891386 0.390596,12.284758 0.390596,12.284758" id="path2934"></path>
                        <path d="M197.077942,0.509521 C187.439911,35.042022 187.932648,47.470062 160.752808,71.160827 C158.980927,75.576568 141.261261,96.183196 135.059479,96.919067 C128.857514,97.655059 109.366089,96.919067 104.936219,93.975341 C100.506318,91.031493 89.874543,68.953002 83.672639,66.745116 C77.470796,64.537261 25.19806,40.250823 23.426118,36.571074 C21.654084,32.891386 0.390596,12.284758 0.390596,12.284758" id="path2932" stroke="#000000" stroke-width="3"></path>
                    </g>
                    <g id="g3424" transform="translate(164.000000, 196.000000)">
                        <g id="g3669">
                            <path d="M224.849426,0.69548 C223.597015,54.792816 206.689483,77.680114 171.622009,82.361541 C136.554504,87.043151 52.642944,106.809356 45.12854,104.728759 C37.614075,102.648132 0.667938,103.688476 0.667938,97.446441 C0.667938,91.204437 86.458038,72.478423 86.458038,72.478423 C86.458038,72.478423 7.556244,94.84558 5.05133,87.043151 C2.5466,79.240661 78.317413,58.433929 78.317413,58.433929 C78.317413,58.433929 21.958923,77.680114 20.706543,67.276794 C19.454102,56.873443 67.671906,48.030578 67.671906,48.030578 C67.671906,48.030578 23.211335,56.873443 25.089936,50.111312 C26.968598,43.34912 55.774018,40.228088 55.774018,40.228088 C55.774018,40.228088 39.492676,39.187774 40.118897,35.546661 C40.745087,31.905471 62.662324,26.703827 62.662324,26.703827 L132.171052,58.954071" id="path3667"></path>
                            <path d="M224.849426,0.69548 C223.597015,54.792816 181.746124,54.082458 171.622009,82.361541 C166.687347,96.145019 58.651733,108.62445 45.12854,104.728759 C37.644867,102.572906 0.667938,103.688476 0.667938,97.446441 C0.667938,91.204437 86.458038,72.478423 86.458038,72.478423 C86.458038,72.478423 7.556244,94.84558 5.05133,87.043151 C2.5466,79.240661 78.317413,58.433929 78.317413,58.433929 C78.317413,58.433929 21.958923,77.680114 20.706543,67.276794 C19.454102,56.873443 67.671906,48.030578 67.671906,48.030578 C67.671906,48.030578 23.211335,56.873443 25.089936,50.111312 C26.968598,43.34912 55.774018,40.228088 55.774018,40.228088 C55.774018,40.228088 39.492676,39.187774 40.118897,35.546661 C40.745087,31.905471 82.690003,23.344574 82.690003,23.344574 L132.171052,58.954071" id="path3665" stroke="#000000" stroke-width="3"></path>
                        </g>
                        <path d="M88.014191,51.286865 C35.382019,63.16626 28.295868,65.645904 31.336151,69.806823 C37.732147,78.560333 107.154358,63.380737 107.140472,63.353759" id="path3295" stroke="#000000" stroke-width="0.735409"></path>
                        <path d="M88.959625,25.764145 C36.327392,37.643478 29.241333,40.123154 32.281524,44.284103 C38.677612,53.037689 108.099853,37.858032 108.085876,37.83107" id="path3297" stroke="#000000" stroke-width="0.735409"></path>
                        <path d="M114.613251,76.821625 C45.671723,91.058472 36.316376,94.233094 39.894501,100.336396 C47.422058,113.17624 138.315613,95.096864 138.299835,95.057587" id="path3279" stroke="#000000"></path>
                    </g>
                    <g id="g3417" transform="translate(237.000000, 195.000000)">
                        <g id="g3677">
                            <path d="M169.364258,9.491318 C169.364258,45.428696 125.268158,85.149018 103.980286,85.149018 C82.692566,85.149018 5.650879,68.126038 0.582428,37.862946 C-4.486114,7.599839 78.637695,0.034028 78.637695,0.034028" id="path3675"></path>
                            <path d="M169.364258,9.491318 C169.364258,45.428696 125.268158,85.149018 103.980286,85.149018 C82.692566,85.149018 5.650879,68.126038 0.582428,37.862946 C-4.486114,7.599839 78.637695,0.034028 78.637695,0.034028" id="path3673" stroke="#000000" stroke-width="3"></path>
                        </g>
                        <polyline id="path2505" stroke="#000000" points="69.364014 0.836166 33.586975 20.445617 82.413757 16.669921 64.232025 30.676635 128.89447 23.612395 95.02362 48.215575 136.225891 41.638427 129.041168 62.831329 149.715545 55.036194"></polyline>
                        <polyline id="path3277" stroke="#000000" points="25.962311 13.137772 8.513672 31.529282 42.091431 31.28566 25.08255 46.632141 73.909363 46.997558 54.114746 65.754424 104.994324 62.465911 92.091065 79.273925 122.736146 77.934203"></polyline>
                    </g>
                    <g id="g3639" transform="translate(406.000000, 73.000000)">
                        <path d="M28.771973,33.714676 C45.371155,29.070412 40.383911,8.897881 40.383911,8.897881 L30.685608,0.383416 L0.844483,14.509682 L4.201661,26.120285 C4.201661,26.120285 12.545899,35.843269 28.771974,33.714676 L28.771973,33.714676 Z" id="path3609"></path>
                        <path d="M29.983093,34.720634 C46.582092,30.076377 40.383911,8.89788 40.383911,8.89788 L30.685608,0.383415 L0.844483,14.509681 L4.201661,26.120284 C4.201661,26.120284 13.756898,36.849227 29.983094,34.720633 L29.983093,34.720634 Z" id="path3607" stroke="#000000" stroke-width="3"></path>
                    </g>
                    <g id="g3625" transform="translate(296.000000, 42.000000)">
                        <path d="M88.667114,0.474598 C50.124115,19.121483 43.743896,28.508957 37.814209,38.360123 C31.884521,48.211289 20.448669,80.227616 13.248352,86.208649 C6.048035,92.189743 0.118317,94.652542 0.118317,94.652542 L20.872284,88.671478 L18.330902,112.595794 C25.708343,105.077621 29.7323,97.161514 31.884521,89.023284 L37.390686,119.632323 C39.981964,109.953795 44.611481,102.532668 53.909119,100.281798 L54.756256,122.095122 C65.782074,121.877379 73.233307,117.205779 76.780884,107.67018 L75.933716,136.168212 C79.761109,129.743682 84.701111,125.16751 93.72284,127.372542 C97.139527,142.579482 94.835328,149.865981 91.605073,155.870558 L104.735108,150.944975 L103.464478,168.53636 C103.464478,168.53636 118.288758,151.648604 117.44159,146.723051 C116.594544,141.797453 110.664796,137.575514 112.35907,131.946287 C115.896668,120.191679 123.7948,95.004377 121.25354,88.31967 C118.71228,81.634932 103.040894,34.138182 103.040894,34.138182 L88.667115,0.474596 L88.667114,0.474598 Z" id="path3621"></path>
                        <path d="M87.080719,0.145153 C48.537689,18.792023 43.743896,28.508957 37.814209,38.360123 C31.884521,48.211289 20.448669,80.227616 13.248352,86.208649 C6.048035,92.189743 0.118317,94.652542 0.118317,94.652542 L20.872284,88.671478 L18.330902,112.595794 C25.708343,105.077621 29.7323,97.161514 31.884521,89.023284 L37.390686,119.632323 C39.981964,109.953795 44.611481,102.532668 53.909119,100.281798 L54.756256,122.095122 C65.782074,121.877379 73.233307,117.205779 76.780884,107.67018 L75.933716,136.168212 C79.761109,129.743682 84.701111,125.16751 93.72284,127.372542 C97.139527,142.579482 94.835328,149.865981 91.605073,155.870558 L104.735108,150.944975 L103.464478,168.53636 C103.464478,168.53636 118.288758,151.648604 117.44159,146.723051 C116.594544,141.797453 110.664796,137.575514 112.35907,131.946287 C115.896668,120.191679 123.7948,95.004377 121.25354,88.31967 C118.71228,81.634932 103.040894,34.138182 103.040894,34.138182 L87.080719,0.145151 L87.080719,0.145153 Z" id="path3619" stroke="#000000" stroke-width="3"></path>
                    </g>
                    <path d="M432.192505,47.590702 C425.202698,36.224785 393.64386,37.919342 382.589142,42.139667 C371.301453,46.448886 363.674225,63.783645 363.674225,63.783645 L379.886994,54.805393 L365.604279,74.525451 L380.079987,66.02819 L366.76236,93.764533 L381.045105,79.495543 L376.412811,96.650366 L382.396118,88.794462 L381.624054,107.071562 L392.04657,93.123221 L395.134644,118.775351 L398.608887,108.193831 L404.592102,125.829695 L407.101257,109.155798 L415.979614,126.310682 C415.979614,126.310682 413.722961,107.04791 411.347473,103.544401 C404.930176,94.07984 429.781311,77.077116 434.47522,80.841711 L451.263733,66.310141 L432.192505,47.590701 L432.192505,47.590702 Z" id="path3591"></path>
                    <path d="M432.192505,47.590702 C425.202698,36.224785 393.64386,37.919342 382.589142,42.139667 C371.301453,46.448886 363.674225,63.783645 363.674225,63.783645 L379.886994,54.805393 L365.604279,74.525451 L380.079987,66.02819 L366.76236,93.764533 L381.045105,79.495543 L376.412811,96.650366 L382.396118,88.794462 L381.624054,107.071562 L392.04657,93.123221 L395.134644,118.775351 L398.608887,108.193831 L404.592102,125.829695 L407.101257,109.155798 L415.979614,126.310682 C415.979614,126.310682 410.961426,107.552534 411.347473,103.544401 C411.733459,99.536245 411.694946,91.920324 418.601929,86.190481 C421.327881,83.929136 433.835999,80.081816 443.183106,78.967558 C455.198609,77.535215 455.306763,68.922331 455.306763,68.922331 L432.192505,47.5907 L432.192505,47.590702 Z" id="path3589" stroke="#000000" stroke-width="3"></path>
                    <g id="g3655" transform="translate(393.000000, 53.000000)">
                        <path d="M16.398682,0.699051 C12.399781,0.699051 0.653199,4.02079 0.653199,10.871803 C0.653199,17.722854 11.400086,28.933655 13.399537,28.933655 C15.398927,28.933655 18.398194,27.480431 21.147401,27.480431 C23.896547,27.480431 26.145936,32.047783 26.145936,32.047783 L38.642457,26.857582 L36.143067,15.439186 L43.641114,9.626152 C43.641114,9.626152 30.144898,0.491436 16.398682,0.699051 Z" id="path3653"></path>
                        <path d="M16.398682,0.699051 C12.399781,0.699051 0.653199,4.02079 0.653199,10.871803 C0.653199,17.722854 11.400086,28.933655 13.399537,28.933655 C15.398927,28.933655 18.398194,27.480431 21.147401,27.480431 C23.896547,27.480431 26.145936,32.047783 26.145936,32.047783 L38.642457,26.857582 L36.143067,15.439186 L43.641114,9.626152 C43.641114,9.626152 30.144898,0.491436 16.398682,0.699051 Z" id="path3651" stroke="#000000" stroke-width="2"></path>
                    </g>
                    <g id="g3584" transform="translate(434.000000, 60.000000)">
                        <path d="M10.831665,0.645996 C28.89563,11.982788 38.547424,23.760414 29.796387,24.100532 C22.423279,24.387077 22.153626,21.152992 20.51593,21.152992 C18.878235,21.152992 2.637329,20.472755 2.637329,20.472755 L0.330444,9.605278" id="path2808"></path>
                        <path d="M0.339844,9.97683 C6.551392,6.366692 6.321656,-0.909393 10.101197,0.831086 C29.447449,9.740311 37.345338,24.427636 29.796387,24.100533 C22.425232,23.781113 22.153626,21.152993 20.51593,21.152993 C18.878235,21.152993 2.637329,20.472756 2.637329,20.472756 L0.339844,9.97683 Z" id="path2806" stroke="#000000" stroke-width="3"></path>
                        <path d="M27.339783,23.420326 C19.01471,18.658882 13.282593,10.496444 11.098938,11.630104 C8.915344,12.763786 3.456238,19.905952 3.456238,19.905952" id="path3580" fill-opacity="0.091346"></path>
                    </g>
                    <g id="g3635" transform="translate(391.000000, 0.000000)">
                        <path d="M10.123962,37.439671 C6.155578,31.440285 -1.818665,11.709885 0.639831,11.106627 C8.088561,15.855809 9.36621,19.29089 15.695007,21.713027 C15.695007,21.713027 17.612793,6.943667 19.236877,5.241261 C22.840148,7.2838 29.457336,24.103487 29.457336,24.103487 C29.457336,24.103487 40.69635,3.844136 43.899658,0.738552 C47.542785,3.661446 43.629028,31.828894 43.629028,31.828894 C43.629028,31.828894 54.117187,15.371611 58.448364,14.001526 C60.690185,17.929125 59.824218,33.06135 59.824218,33.06135 C66.709899,24.762129 64.543212,31.342451 67.212402,29.89905 C72.130188,39.79592 71.291259,57.710634 58.103149,62.025637 C46.908081,63.958941 12.370178,46.146975 10.123962,37.439673 L10.123962,37.439671 Z" id="path3633"></path>
                        <path d="M10.123962,37.439671 C6.155578,31.440285 -1.818665,11.709885 0.639831,11.106627 C8.088561,15.855809 9.36621,19.29089 15.695007,21.713027 C15.695007,21.713027 17.612793,6.943667 19.236877,5.241261 C22.840148,7.2838 29.457336,24.103487 29.457336,24.103487 C29.457336,24.103487 40.69635,3.844136 43.899658,0.738552 C47.542785,3.661446 43.629028,31.828894 43.629028,31.828894 C43.629028,31.828894 54.117187,15.371611 58.448364,14.001526 C60.690185,17.929125 59.824218,33.06135 59.824218,33.06135 C66.709899,24.762129 64.543212,31.342451 67.212402,29.89905 C72.130188,39.79592 71.291259,57.710634 58.103149,62.025637 C46.908081,63.958941 12.370178,46.146975 10.123962,37.439673 L10.123962,37.439671 Z" id="path3603" stroke="#000000" stroke-width="3"></path>
                    </g>
                    <g id="g3659" transform="translate(403.000000, 59.000000)">
                        <path d="M17.511536,5.446251 C17.511536,9.22467983 13.6229661,12.2877016 8.826172,12.2877016 C4.02937792,12.2877016 0.140808,9.22467983 0.140808,5.446251 L17.511536,5.446251 Z" id="path3601"></path>
                        <path d="M16.4625759,5.389824 C16.4731057,7.57096943 15.00192,9.59000831 12.6056158,10.6829954 C10.2093115,11.7759824 7.25388348,11.7759824 4.85757924,10.6829954 C2.46127499,9.59000831 0.990089312,7.57096943 1.0006191,5.389824 L16.4625759,5.389824 Z" id="path3643"></path>
                        <path d="M14.539237,5.281105 C14.5454016,6.8502488 13.4506052,8.30222046 11.6686677,9.08815759 C9.88673012,9.87409471 7.68950388,9.87409471 5.90756634,9.08815759 C4.1256288,8.30222046 3.03083241,6.8502488 3.03699699,5.281105 L14.539237,5.281105 Z" id="path3645"></path>
                        <path d="M5.735474,0.448746 C6.962098,5.362549 11.101197,5.332344 16.188904,4.226593 C10.420532,3.93869 8.796997,3.634979 5.735474,0.448746 Z" id="path3647"></path>
                    </g>
                    <path d="M464.638428,83.72113 C464.638428,83.72113 456.508911,77.261924 450.014282,75.50029 C443.519653,73.738686 434.992553,70.215462 434.992553,70.215462" id="path3649" stroke="#000000"></path>
                    <g id="g3285" transform="translate(0.000000, 209.000000)">
                        <path d="M64.278381,6.714401 C15.749756,-5.442902 -1.196755,2.235382 0.343849,5.434662 C1.884445,8.634003 64.278381,17.591965 64.278381,17.591965 C64.278381,17.591965 9.587402,9.913681 9.587402,21.431137 C9.587402,32.948547 84.306076,26.549942 84.306076,26.549942 C84.306076,26.549942 28.074478,36.147766 36.547729,47.665283 C45.020996,59.182739 115.888214,32.308639 115.888214,32.308639" id="path3283"></path>
                        <path d="M64.278381,6.714401 C15.749756,-5.442902 -1.196755,2.235382 0.343849,5.434662 C1.884445,8.634003 64.278381,17.591965 64.278381,17.591965 C64.278381,17.591965 9.587402,9.913681 9.587402,21.431137 C9.587402,32.948547 84.306076,26.549942 84.306076,26.549942 C84.306076,26.549942 28.074478,36.147766 36.547729,47.665283 C45.020996,59.182739 115.888214,32.308639 115.888214,32.308639" id="path3281" stroke="#000000" stroke-width="3"></path>
                    </g>
                    <path d="M86.003738,221.119049 C17.973159,238.112427 8.813827,241.659607 12.743621,247.611847 C21.010833,260.13382 110.743743,238.419312 110.725707,238.380707" id="path3293" stroke="#000000"></path>
                    <path d="M149.423889,175.799591 C95.291168,173.781357 73.589477,51.637844 44.703018,60.996323 C28.604248,65.053002 106.476181,169.707199 106.476181,169.707199 C106.476181,169.707199 50.323013,78.275223 34.987473,81.914894 C13.235627,87.077454 82.1306,181.562042 82.1306,181.562042 C82.1306,181.562042 25.253632,90.954063 14.266144,96.486023 C3.27874,102.01799 56.106018,187.140823 56.106018,187.140823 C56.110168,187.138504 14.464188,122.433731 4.299683,131.854538 C-5.864845,141.275314 50.229538,205.271759 50.229538,205.271759 C50.229538,205.271759 6.14325,158.899277 1.276428,167.616928 C-3.762703,176.643173 37.636993,219.218628 37.636993,219.218628 C37.636993,219.218628 75.414596,251.993836 123.266174,245.020355 C171.117798,238.046951 171.117798,238.046951 171.117798,238.046951" id="path2918"></path>
                    <path d="M149.423889,175.799591 C95.291168,173.781357 73.589477,51.637844 44.703018,60.996323 C28.604248,65.053002 106.476181,169.707199 106.476181,169.707199 C106.476181,169.707199 50.323013,78.275223 34.987473,81.914894 C13.235627,87.077454 82.1306,181.562042 82.1306,181.562042 C82.1306,181.562042 25.253632,90.954063 14.266144,96.486023 C3.27874,102.01799 56.106018,187.140823 56.106018,187.140823 C56.110168,187.138504 14.038849,122.274826 3.874329,131.695617 C-6.290184,141.116409 50.229538,205.271758 50.229538,205.271758 C50.229538,205.271758 6.14325,158.899276 1.276444,167.616927 C-3.762702,176.643172 37.636994,219.218627 37.636994,219.218627 C37.636994,219.218627 75.414597,251.993835 123.266175,245.020354 C171.11786,238.04695 171.11786,238.04695 171.11786,238.04695" id="path2916" stroke="#000000" stroke-width="3"></path>
                    <path d="M187.165894,212.542587 C187.165894,212.542587 109.860718,224.77391 106.793076,219.67752 C103.725403,214.581084 138.083283,212.542587 138.083283,212.542587 C138.083283,212.542587 94.856568,218.500473 93.295319,213.561905 C91.726578,208.599442 135.015595,204.388336 135.015595,204.388336 C135.015595,204.388336 89.583817,204.277557 89.614136,197.253403 C89.64444,190.229187 122.131424,192.66658 122.131424,192.66658 C122.131424,192.66658 83.976898,190.071213 83.47879,180.944855 C82.985855,171.913422 121.517868,185.021988 121.517868,185.021988 C121.517868,185.021988 81.038544,169.620575 86.456299,163.357514 C92.280457,156.624619 128.88028,179.925583 128.88028,179.925583 C128.88028,179.925583 90.117142,157.868607 97.590073,151.895386 C105.000565,145.972046 114.155442,158.011063 120.290802,163.107468 C126.426132,168.203873 147.0336,166.889725 154.387024,167.067444 C161.378662,167.236435 196.163757,180.7547 196.163757,180.7547" id="path2922"></path>
                    <g id="g2495" transform="translate(197.000000, 412.000000)">
                        <path d="M22.269012,0.738434 C22.269012,0.738434 4.853881,6.31189 3.427795,8.94458 C2.00177,11.57727 0.48822,15.524078 0.48822,15.524078 C0.48822,15.524078 9.208862,12.962799 9.621734,10.686737 C10.034637,8.410675 31.825286,8.899902 31.825286,8.899902" id="path2493"></path>
                        <path d="M22.269012,0.738434 C22.269012,0.738434 4.853881,6.31189 3.427795,8.94458 C2.00177,11.57727 0.48822,15.524078 0.48822,15.524078 C0.48822,15.524078 9.208862,12.962799 9.621734,10.686737 C10.034637,8.410675 31.825286,8.899902 31.825286,8.899902" id="path2491" stroke="#000000" stroke-width="3"></path>
                    </g>
                    <path d="M69.887634,176.507614 C24.784515,130.916504 17.313232,125.263779 12.216491,130.570434 C1.494239,141.734359 60.208129,202.139221 60.244048,202.110595" id="path3289" stroke="#000000"></path>
                    <path d="M90.333099,173.68013 C53.716537,123.112503 47.317566,116.615143 41.343612,121.247681 C28.775985,130.993271 76.257049,197.865052 76.297607,197.84108" id="path3291" stroke="#000000"></path>
                    <path d="M187.165894,212.542587 C187.165894,212.542587 109.860718,224.77391 106.793076,219.67752 C103.725403,214.581084 138.083283,212.542587 138.083283,212.542587 C138.083283,212.542587 94.856568,218.500473 93.295319,213.561905 C91.726578,208.599442 135.015595,204.388336 135.015595,204.388336 C135.015595,204.388336 89.583817,204.277557 89.614136,197.253403 C89.64444,190.229187 122.131424,192.66658 122.131424,192.66658 C122.131424,192.66658 83.976898,190.071213 83.47879,180.944855 C82.985855,171.913422 121.517868,185.021988 121.517868,185.021988 C121.517868,185.021988 81.038544,169.620575 86.456299,163.357514 C92.280457,156.624619 128.88028,179.925583 128.88028,179.925583 C128.88028,179.925583 90.117142,157.868607 97.590073,151.895386 C105.000565,145.972046 114.155442,158.011063 120.290802,163.107468 C126.426132,168.203873 147.0336,166.889725 154.387024,167.067444 C161.378662,167.236435 196.163757,180.7547 196.163757,180.7547" id="path2920" stroke="#000000" stroke-width="3"></path>
                    <path d="M352.578064,303.013245 C352.578064,303.013245 345.585297,334.960968 340.340759,339.317475 C335.096039,343.673981 321.110504,357.711579 321.110504,357.711579 C321.110504,357.711579 298.966675,384.818696 295.470245,385.302735 C291.973877,385.786774 264.585388,382.398377 264.585388,382.398377 L296.053009,360.131928 L314.117706,311.726319 C337.127594,293.851288 343.342285,305.991395 352.578064,303.013245 Z" id="path3394" fill-opacity="0.091346"></path>
                    <path d="M326.014313,443.823639 L341.967469,445.782593 L330.869599,440.827576 L301.321778,405.105744 L290.917603,384.940308 L281.62323,384.709717 C298.299408,412.753174 311.751648,431.897675 326.014313,443.823639 Z" id="path3407" fill-opacity="0.091346"></path>
                    <path d="M226.689148,412.941498 L234.041412,413.056732 L219.614318,384.018402 L214.065429,367.425018 L211.984588,357.976013 L204.632263,356.017029 C206.413452,376.677765 215.687073,394.65448 226.689148,412.941498 Z" id="path3409" fill-opacity="0.091346"></path>
                    <path d="M416.745483,88.558372 C416.745483,88.558372 395.186035,104.437355 389.48468,111.202934 C383.783295,117.968513 388.658508,136.562957 382.549896,147.387893 C376.441314,158.212844 397.615112,189.694534 397.615112,191.385925 C397.615112,192.563049 394.672668,203.831772 392.513672,212.010986 C385.602509,215.099624 378.919769,218.211517 375.65506,220.883453 C370.133484,225.402267 359.192475,240.115005 341.97757,251.04309 C324.762604,261.971007 281.318238,280.958343 257.883576,287.625274 C234.448975,294.292205 188.775147,297.921264 188.775147,297.921264 L213.564881,301.033294 C213.564881,301.033294 249.563874,297.197143 278.648072,296.001098 C329.793427,284.705413 332.761018,276.940826 343.691376,279.977783 C401.571717,254.622589 411.478028,211.909118 411.478028,211.909118 L413.477357,190.359618 C413.477357,190.359618 406.587525,177.524642 408.216554,175.494948 C409.845521,173.465285 418.379457,139.622878 418.379457,131.165923 C418.379457,122.708938 413.101259,115.607551 411.472353,109.518508 L416.745485,88.558372 L416.745483,88.558372 Z" id="path3411" fill-opacity="0.091346"></path>
                    <path d="M161.411469,294.554413 L159.782471,301.996552 L169.556275,309.776948 C169.556275,309.776948 95.031388,295.569184 83.628678,284.744264 C72.225999,273.919343 66.117371,257.343599 66.117371,257.343599 L83.221451,252.269441 C101.33371,270.331819 126.360001,286.18329 161.411469,294.554414 L161.411469,294.554413 Z" id="path3413" fill-opacity="0.091346"></path>
                </g>
            </g>
        </g>
    </g>
</svg>