<?xml version="1.0" encoding="UTF-8"?>
<svg width="644px" height="383px" viewBox="0 0 644 383" version="1.1" xmlns="http://www.w3.org/2000/svg" xmlns:xlink="http://www.w3.org/1999/xlink">
    <!-- Generator: Sketch 49.1 (51147) - http://www.bohemiancoding.com/sketch -->
    <title>Shape</title>
    <desc>Created with Sketch.</desc>
    <defs></defs>
    <g id="Page-1" stroke="none" stroke-width="1" fill="none" fill-rule="evenodd">
        <path d="M358.522104,381.415072 C356.718544,374.446367 356.976195,374.594637 351.05021,378.597936 C347.829566,380.67372 344.995399,382.452964 344.608922,382.452964 C344.222444,382.452964 343.835967,380.228909 343.835967,377.411773 C343.835967,368.515555 342.934187,367.329392 336.879376,368.367284 L331.468694,369.405177 L329.793959,361.843391 C328.892178,357.691822 327.603921,353.985064 326.959792,353.540253 C326.315663,352.947172 323.223845,353.985064 320.003201,355.616038 L314.206041,358.581444 L312.144829,350.426577 C311.114223,345.978467 309.439488,342.41998 308.537708,342.41998 C307.635927,342.41998 304.286457,343.309602 300.936987,344.495764 L295.139828,346.571549 L294.366873,341.678628 C293.207441,335.154735 290.759752,333.07895 283.545509,332.78241 C276.073615,332.337599 221.580316,310.986674 181.90198,292.749425 C148.793759,277.625854 151.885577,282.073963 155.492699,254.643955 L157.940388,237.444599 L154.075615,236.554977 C143.769554,234.182652 125.862773,237.148059 115.943189,242.930601 C113.237848,244.561574 105.121824,250.937198 97.9075815,257.164551 C82.1908382,270.657149 57.3274655,289.784019 47.2790558,296.307913 C43.2854571,298.976779 32.5929186,304.017969 23.4462893,307.576457 C2.83416683,315.583053 2.70534107,315.583053 9.53310662,296.752724 C16.4896979,277.625854 19.5815163,243.227141 18.9373875,195.484101 C18.2932587,156.192468 17.9067814,153.968414 6.18363673,124.017811 L0,107.856347 L6.69893979,108.894239 C24.7345469,111.563105 30.6605321,113.93543 56.1680336,128.762461 C70.210042,136.917328 88.3744749,148.334142 96.4904981,154.264954 C115.943189,168.350634 124.574515,171.909121 139.647129,171.909121 C146.088418,171.909121 154.977395,170.871229 159.615123,169.685067 C171.724745,166.42312 192.336867,158.416523 193.367473,156.489009 C195.29986,153.078792 194.269254,151.744359 188.085617,150.113386 C173.528306,146.110087 169.921184,138.844842 169.921184,113.93543 C169.921184,104.5944 169.277055,91.8431532 168.375275,85.6158001 C167.60232,79.2401767 167.215843,73.6059049 167.731146,73.1610939 C169.277055,71.3818502 186.539708,75.8299595 195.943989,80.5746095 C201.354671,83.2434751 210.758952,88.877747 216.813763,93.177586 C227.119824,100.294561 228.408082,100.739372 235.364673,100.442831 C241.677135,100.146291 243.480696,100.739372 247.345469,104.001319 C253.529106,109.33905 260.485697,111.563105 267.184637,110.525212 C270.276455,109.932131 279.938388,106.521914 288.69854,103.111697 C319.745549,90.5087204 343.835967,86.505422 380.937788,87.9881251 L405.80116,88.877747 L400.64813,83.2434751 C393.047409,74.9403377 392.918584,72.716283 399.617524,47.6586003 C402.838168,35.6487051 406.831766,20.2285927 408.377676,13.259888 C410.05241,6.2911834 411.469494,0.360370938 411.727145,0.0638303143 C411.984797,-0.380980621 414.174835,1.54653343 416.622525,4.36366935 C421.260252,9.55313026 432.081616,36.8348676 442.258852,68.8612549 C448.828966,89.6190985 450.246049,92.8810454 453.595519,95.4016407 C455.270254,96.5878032 475.109422,101.332453 497.782757,105.928833 C549.055411,116.307755 582.55011,123.72127 595.046209,127.576298 C608.572915,131.727867 636.656931,146.110087 640.65053,151.003008 L644,155.006306 L640.264053,159.157875 C636.39928,163.457714 634.466893,163.902525 606.89818,167.164472 L597.493899,168.202364 L618.75015,186.736153 C630.473295,196.966804 640.135227,205.566482 640.135227,206.011293 C640.006401,208.680159 630.60212,217.576377 591.181436,251.97509 C566.704541,273.474285 543.515903,293.342507 539.65113,296.456183 C519.167834,312.469377 492.114423,323.737921 452.04961,332.78241 C445.994799,334.265113 439.038208,336.489167 436.461692,337.97187 C434.014003,339.454574 422.419684,348.795603 410.825365,358.729714 C399.231046,368.663825 387.636727,378.004855 385.189038,379.339287 C379.134227,382.897775 359.295059,384.380478 358.522104,381.415072 Z" id="Shape" fill="#000000" fill-rule="nonzero" transform="translate(322.000000, 191.500000) scale(1, -1) translate(-322.000000, -191.500000) "></path>
    </g>
</svg>