<?xml version="1.0" encoding="utf-8"?>
<!-- Svg Vector Icons : http://www.onlinewebfonts.com/icon -->
<!DOCTYPE svg PUBLIC "-//W3C//DTD SVG 1.1//EN" "http://www.w3.org/Graphics/SVG/1.1/DTD/svg11.dtd">
<svg version="1.1" xmlns="http://www.w3.org/2000/svg" xmlns:xlink="http://www.w3.org/1999/xlink" x="0px" y="0px" viewBox="0 0 1000 1000" enable-background="new 0 0 1000 1000" xml:space="preserve">
<metadata> Svg Vector Icons : http://www.onlinewebfonts.com/icon </metadata>
<g><g transform="translate(0.000000,511.000000) scale(0.100000,-0.100000)"><path d="M8533.3,4972.5c-203.1-57.5-369.9-260.6-486.8-594.1c-11.5-30.7-21.1-28.8-113.1,13.4c-310.5,145.7-517.4-57.5-588.3-573c-11.5-70.9-23-134.2-26.8-139.9c-5.8-3.8-55.6,5.8-111.2,21.1c-138,42.2-178.2,38.3-245.3-17.3c-86.2-74.7-111.1-216.6-67.1-408.2c49.8-224.2,57.5-479.1,17.3-601.8c-92-283.6-505.9-981.2-553.9-933.3c-7.7,5.7,26.8,189.7,74.7,408.2c143.7,653.5,184,998.5,145.6,1282.1c-28.8,208.9-55.6,289.4-174.4,492.5c-51.7,90.1-111.2,228.1-132.2,306.6c-51.7,184-84.3,214.6-231.9,226.1c-115,7.7-115,7.7-151.4,92c-65.2,145.6-231.9,201.2-392.9,134.2c-63.3-26.8-65.2-26.8-138,49.8c-172.5,178.2-417.8,231.9-576.9,126.5c-49.8-32.6-93.9-86.2-122.6-143.7c-40.3-80.5-46-120.7-47.9-322c0-224.2-1.9-231.9-61.3-325.8c-130.3-207-120.7-379.5,32.6-527c47.9-47.9,103.5-95.8,124.6-105.4c32.6-19.2,34.5-28.8,11.5-157.1c-36.4-201.2-19.2-320,57.5-398.6c34.5-34.5,103.5-82.4,155.2-103.5c86.2-38.3,92-44.1,74.7-90.1c-11.5-26.8-19.2-93.9-19.2-149.5c0-132.2,51.7-184,264.5-251.1c178.2-57.5,270.2-124.6,335.4-247.2c36.4-67.1,42.2-109.2,42.2-279.8c0-176.3-7.6-216.6-53.7-325.8l-51.7-122.6l346.9-348.8l346.9-346.9l138,47.9c109.2,40.3,172.5,49.8,318.1,49.8c162.9,1.9,193.6-3.8,293.2-51.7c126.5-63.2,180.2-138,241.5-350.7C7262.7,122,7312.6,70.3,7439,70.3c53.7,0,126.5,11.5,162.9,26.8l65.2,28.8l32.6-86.3c44.1-118.8,141.8-251,228.1-308.5c103.5-70.9,178.2-65.2,299,19.2l99.7,70.9l155.2-149.5c178.2-170.6,272.1-224.2,366-207c65.2,13.4,164.8,107.3,203.1,191.6c17.3,38.3,32.6,40.3,253,40.3c203.1,0,243.4,5.8,312.4,42.2c272.1,145.6,285.6,436.9,30.7,699.5l-86.2,90.1l21.1,109.2c44.1,218.5,15.3,293.2-134.2,343c-61.3,21.1-63.2,24.9-72.8,149.5c-13.4,170.6-53.7,212.7-247.2,254.9c-178.2,38.3-235.7,67.1-287.5,138c-23,32.6-70.9,65.2-115,78.6c-124.6,36.4-601.7,63.2-879.6,49.8c-337.3-15.3-527-47.9-893.1-153.3c-166.7-47.9-316.2-86.2-331.5-86.2c-36.4,0,327.7,272.1,519.4,387.1c360.3,218.5,599.8,262.5,1015.7,189.7c176.3-30.7,243.4-36.4,297-21.1c170.6,47.9,233.8,185.9,162.9,354.5c-15.4,38.3-24.9,74.8-19.2,80.5c3.8,5.7,70.9,17.3,147.5,26.8c304.7,38.3,465.7,105.4,561.5,233.8c53.7,70.9,49.8,237.6-5.8,364.1c-21.1,51.7-40.2,95.8-40.2,99.7c0,1.9,28.8,11.5,65.2,17.3c36.4,7.7,126.5,42.2,199.3,78.6c224.2,113.1,373.7,312.4,375.6,502.1c1.9,88.1-5.8,107.3-63.3,166.7c-34.5,36.4-101.6,86.2-147.5,111.1c-46,24.9-84.3,49.8-84.3,57.5c0,5.8,26.8,78.6,59.4,159.1c99.7,251.1,93.9,427.4-19.2,534.7c-107.3,103.5-270.2,101.6-519.3-7.7c-70.9-30.7-139.9-57.5-151.4-57.5c-11.5,0-34.5,32.6-49.8,72.8c-42.2,97.8-138,191.7-220.4,214.6C8625.3,4997.4,8619.5,4997.4,8533.3,4972.5z"/><path d="M4104.5,1685.8c-431.2-72.8-841.3-333.4-1059.8-678.4c-113.1-180.2-933.3-1680.7-931.4-1707.5c0-13.4,205-266.4,456.1-561.5c251-295.1,454.2-538.5,452.3-542.3c-3.8-3.8-266.4,153.3-586.4,346.9c-320,195.5-584.5,352.6-584.5,352.6c-24.9-26.8-1713.3-3054.8-1730.5-3098.9c-103.5-300.9,208.9-638.2,517.4-555.8c76.7,21.1,1498.6,829.8,1506.3,858.6c3.8,7.7-107.3,172.5-245.3,366c-136.1,193.6-245.3,354.5-243.4,356.5c3.8,3.8,178.2-118.8,389-270.2c210.8-151.4,396.7-272.1,412-268.3c65.2,17.2,3056.7,1676.9,3056.7,1696c0,11.5-208.9,270.2-465.7,576.9c-254.9,304.7-459.9,555.8-456.1,555.8c5.7,0,297-195.5,647.7-433.1c350.7-239.6,651.6-438.9,666.9-442.7c65.2-17.3,335.4,325.8,442.7,561.5c237.6,525.1,222.3,1063.6-42.1,1517.8c-84.3,141.8-958.2,1021.5-1119.2,1125c-157.1,103.5-373.7,193.6-550,228.1C4501.2,1697.3,4221.4,1705,4104.5,1685.8z"/></g></g>
</svg>